# xmcd
# Copyright (C) 1995-1998 Ti Kan
#
# Track frame offsets:
#       150
#       15513
#       28434
#       40037
#       53333
#       67115
#       79232
#       89850
#       105710
#       116512
#       130016
#       140544
#       151603
#       164606
#       183026
#       198163
#       211145
#       224517
#       234616
#       246492
#
# Disc length: 3452 seconds
#
# Revision: 0
# Processed by: cddbd v1.5.2PL0 Copyright (c) Steve Scherf et al.
# Submitted via: CD-Transfer v1.0
#
DISCID=180d7a14
DTITLE=Da Zillertaler&die Geigerin - 
DYEAR=2008
DGENRE=
TTITLE0=Fürs Zillertal Da Geig`ma
TTITLE1=Ganz Zeacht Hat Der Herrgott Die Zillertaler Gmacht
TTITLE2=A Echter Zillertaler
TTITLE3=Die Musikanten Aus Dem Zillertal
TTITLE4=Setz Di Her, Häng Di Ein
TTITLE5=Tanz A Bisserl Boarisch Nur Mit Mir
TTITLE6=Fahrt Durch Tirol
TTITLE7=Pack Die Geig`n Aus
TTITLE8=Lasset Uns Das Leben Genießen
TTITLE9=Umer-Rutscher-Treschtrer
TTITLE10=Ja Das Ist Volksmusik
TTITLE11=Der Teufelsgeigerbua
TTITLE12=Abendfrieden Über`m Tal
TTITLE13=Bei Der Geigerin - Medley
TTITLE14=A Zillertaler Musig
TTITLE15=Kreuz Und Quer
TTITLE16=A Musi Die Von Herzen Kommt
TTITLE17=Boarisch Passt Zum Zillertal
TTITLE18=Musik Vom Zillertal
TTITLE19=Es Muss Alles So Sein
EXTD=
EXTT0=
EXTT1=
EXTT2=
EXTT3=
EXTT4=
EXTT5=
EXTT6=
EXTT7=
EXTT8=
EXTT9=
EXTT10=
EXTT11=
EXTT12=
EXTT13=
EXTT14=
EXTT15=
EXTT16=
EXTT17=
EXTT18=
EXTT19=
PLAYORDER=
